<svg id="Слой_1" data-name="Слой 1" xmlns="http://www.w3.org/2000/svg" viewBox="0 0 52.05 52.05"><defs><style>.cls-1{fill:#351b75;}.cls-2{fill:#4c1d96;}</style></defs><polyline class="cls-1" points="52.05 0 52.05 5 33.41 5"/><polyline class="cls-1" points="5 33.41 5 52.05 0 52.05"/><path class="cls-2" d="M19.21,31.48a3.4,3.4,0,0,0-.67-.51,1.79,1.79,0,0,0-.67-.21,1.3,1.3,0,0,0-.65.08,1.46,1.46,0,0,0-.59.38,1.5,1.5,0,0,0-.38.58,1.47,1.47,0,0,0-.08.66,2,2,0,0,0,.22.67,2.74,2.74,0,0,0,.5.66,2.77,2.77,0,0,0,.67.51,1.82,1.82,0,0,0,.67.22,1.52,1.52,0,0,0,1.24-.46,1.53,1.53,0,0,0,.38-.59,1.44,1.44,0,0,0,.08-.65,1.69,1.69,0,0,0-.22-.68A3.19,3.19,0,0,0,19.21,31.48Z" transform="translate(-3.84 -3.84)"/><path class="cls-2" d="M23.06,28.28a2.12,2.12,0,0,0-.8.54l-.63.63,1.2,1.19.27-.23.25-.25a2.54,2.54,0,0,0,.38-.44A1.25,1.25,0,0,0,24,29.3a.73.73,0,0,0,0-.41.65.65,0,0,0-.22-.39A.68.68,0,0,0,23.06,28.28Z" transform="translate(-3.84 -3.84)"/><path class="cls-2" d="M21.92,27a.6.6,0,0,0-.65-.16,2,2,0,0,0-.74.51l-.29.3c-.08.08-.14.16-.2.23l1,1,.51-.5a2.1,2.1,0,0,0,.52-.76A.6.6,0,0,0,21.92,27Z" transform="translate(-3.84 -3.84)"/><path class="cls-2" d="M35.2,5.89,5.89,35.2a7,7,0,0,0-2,4.95V55.88l52.05-52H40.15A7,7,0,0,0,35.2,5.89ZM16.62,38l-1.73-1.74L13.18,38l1.74,1.73-.71.72-3.92-3.92.71-.72,1.56,1.57,1.71-1.7L12.7,34.07l.71-.71,3.92,3.92Zm4.09-4.18a2.93,2.93,0,0,1-1.47,1.47,2.31,2.31,0,0,1-1,.22,2.56,2.56,0,0,1-1-.23,3.41,3.41,0,0,1-1-.73,3.53,3.53,0,0,1-.73-1,2.74,2.74,0,0,1-.23-1.06,2.64,2.64,0,0,1,.22-1,2.79,2.79,0,0,1,.6-.86,3,3,0,0,1,.86-.6,2.45,2.45,0,0,1,1-.21,2.74,2.74,0,0,1,1.06.23,3.8,3.8,0,0,1,1.77,1.77,2.58,2.58,0,0,1,.24,1.05A2.3,2.3,0,0,1,20.71,33.81ZM25,29.12a3.38,3.38,0,0,1-1,1.66c-.2.21-.42.41-.64.61a4.49,4.49,0,0,1-.64.47l-3.81-3.81c.07-.1.14-.2.23-.31s.16-.21.25-.31.19-.21.28-.31a3.63,3.63,0,0,1,.27-.28,4.91,4.91,0,0,1,.71-.61,2.23,2.23,0,0,1,.71-.35,1.31,1.31,0,0,1,.68,0,1.34,1.34,0,0,1,.62.38,1.15,1.15,0,0,1,.35.61,1.34,1.34,0,0,1-.06.68,1.46,1.46,0,0,1,.88-.17,1.36,1.36,0,0,1,.76.42A1.42,1.42,0,0,1,25,29.12Zm4-3.47-2.81-2.8c0,.35.08.72.14,1.14s.13.82.21,1.24.17.84.26,1.24.17.78.26,1.12l-.61.61-3.92-3.92.71-.71,2.6,2.6c-.07-.33-.15-.69-.22-1.09s-.13-.81-.19-1.22-.11-.81-.16-1.2-.06-.74-.07-1.05l.58-.58L29.66,25Zm4.06-4-1.74-1.74-1.7,1.7,1.73,1.74L30.6,24l-3.92-3.92.71-.71L29,21l1.7-1.71L29.1,17.68l.71-.71,3.92,3.92Zm4-4c-.25-.05-.52-.09-.82-.13s-.58-.06-.88-.08-.59,0-.88,0a6.54,6.54,0,0,0-.81.08l1.76,1.76-.71.72L30.75,16l.71-.72,1.62,1.62c0-.25,0-.51,0-.79s0-.55,0-.83,0-.55,0-.81,0-.48,0-.69l.86-.86c0,.27,0,.55,0,.85s0,.59,0,.89,0,.61,0,.91,0,.6,0,.88c.28,0,.58-.05.91-.06l1,0c.35,0,.69.07,1,.12s.67.12,1,.19Zm3.49-4.41-.62-.3-1.66,1.66q.16.31.3.63l.3.61-.74.75c-.27-.57-.52-1.1-.74-1.58s-.43-1-.62-1.4-.37-.87-.53-1.28-.32-.82-.47-1.23l.68-.68,1.24.46,1.28.53,1.39.62,1.59.74-.77.77Z" transform="translate(-3.84 -3.84)"/><path class="cls-2" d="M36.81,11.48c.11.29.25.63.43,1s.37.82.59,1.28l1.29-1.29-1.29-.59Z" transform="translate(-3.84 -3.84)"/></svg>